<svg xmlns="http://www.w3.org/2000/svg" viewBox="0 0 512.001 512.001" style="max-width:100%" height="100%">
  <path d="M441.307 0H70.694C47.697 0 28.987 18.71 28.987 41.707v172.577c0 22.997 18.709 41.706 41.706 41.706h15.173l41.001 54.995c4.46 5.981 11.164 9.272 18.232 9.272 2.396 0 4.834-.378 7.24-1.158 9.504-3.08 15.732-11.525 15.87-21.513l.572-41.595h45.994a60.661 60.661 0 0 0-4.469 22.881c0 19.472 9.181 36.828 23.427 48.005-45.824 16.272-78.624 59.078-78.624 109.194v55.919H95.204c-5.525 0-10.004 4.479-10.004 10.004 0 5.525 4.479 10.004 10.004 10.004h330.76c5.525 0 10.004-4.479 10.004-10.004 0-5.525-4.479-10.004-10.004-10.004H394.14v-55.917c0-51.816-35.067-95.815-83.336-110.755 13.151-11.198 21.515-27.859 21.515-46.445 0-33.638-27.367-61.005-61.005-61.005-16.933 0-32.272 6.939-43.335 18.116h-69.063c-5.471 0-9.928 4.396-10.003 9.866l-.708 51.461c-.024 1.741-1.118 2.459-2.033 2.756-.913.295-2.222.355-3.262-1.039l-44.001-59.019a10.002 10.002 0 0 0-8.02-4.025H70.694c-11.965 0-21.699-9.734-21.699-21.699V41.707c0-11.965 9.734-21.7 21.699-21.7h370.613c11.965 0 21.699 9.734 21.699 21.7v172.577c0 11.965-9.734 21.699-21.699 21.699h-38.228c-5.525 0-10.004 4.479-10.004 10.004 0 5.525 4.479 10.004 10.004 10.004h38.228c22.997 0 41.706-18.709 41.706-41.706V41.707C483.015 18.71 464.304 0 441.307 0zm-67.174 436.072v55.919h-32.981v-52.387c0-5.525-4.479-10.004-10.004-10.004s-10.004 4.479-10.004 10.004v52.387h-91.268v-52.387c0-5.525-4.479-10.004-10.004-10.004-5.525 0-10.004 4.479-10.004 10.004v52.387h-34.747v-55.919c0-53.042 44.639-96.194 99.506-96.194s99.506 43.152 99.506 96.194zM271.315 237.875c22.606 0 40.997 18.391 40.997 40.997s-18.391 40.997-40.997 40.997-40.997-18.391-40.997-40.997 18.391-40.997 40.997-40.997z" style="" fill="currentColor"></path><circle cx="468.886" cy="501.998" r="10.003" style="" fill="currentColor"></circle><circle cx="170.838" cy="123.479" r="10.004" style="" fill="currentColor"></circle><circle cx="229.201" cy="123.479" r="10.004" style="" fill="currentColor"></circle><circle cx="281.412" cy="123.479" r="10.004" style="" fill="currentColor"></circle><circle cx="338.545" cy="123.479" r="10.004" style="" fill="currentColor"></circle><circle cx="360.333" cy="245.557" r="10.004" style="" fill="currentColor"></circle>
</svg>