<svg xmlns="http://www.w3.org/2000/svg" viewBox="0 0 511.999 511.999" style="max-width:100%" height="100%">
  <circle cx="10.06" cy="500.446" r="10.06" style="" fill="currentColor"></circle>
  <circle cx="267.005" cy="245.308" r="10.04" style="" fill="currentColor"></circle>
  <path d="M398.479 118.032c-8.071-8.072-18.802-12.516-30.216-12.516-11.414 0-22.146 4.446-30.216 12.516-16.661 16.662-16.661 43.772 0 60.433 8.332 8.331 19.272 12.495 30.216 12.495 10.941 0 21.886-4.166 30.216-12.495 16.661-16.662 16.661-43.772 0-60.433zm-14.197 46.234c-8.833 8.832-23.206 8.832-32.037 0-8.833-8.832-8.833-23.204 0-32.037a22.503 22.503 0 0 1 16.018-6.635 22.503 22.503 0 0 1 16.018 6.635c8.833 8.833 8.833 23.205.001 32.037zM125.409 411.45c-4.964-2.472-10.99-.451-13.462 4.512l-11.958 24.015c-5.2 10.441-15.658 17.423-27.296 18.219l-13.908.952c-2.351.157-3.897-1.014-4.612-1.729s-1.889-2.264-1.729-4.613l.952-13.907c.797-11.637 7.779-22.096 18.219-27.296l24.014-11.958c4.964-2.472 6.984-8.499 4.512-13.462-2.471-4.963-8.498-6.984-13.462-4.512l-24.014 11.958c-16.792 8.362-28.02 25.182-29.302 43.898l-.952 13.907a26.021 26.021 0 0 0 7.562 20.183 26.024 26.024 0 0 0 20.183 7.563l13.908-.952c18.716-1.281 35.536-12.508 43.898-29.302l11.958-24.014c2.472-4.964.452-10.99-4.511-13.462z" style="" fill="currentColor"></path><path d="M505.07 8.18a23.246 23.246 0 0 0-17.793-6.639l-9.348.596c-83.819 5.351-162.262 45.81-215.215 111.004L240.71 140.23l-57.583-1.691a9.65 9.65 0 0 0-.294-.004c-45.668 0-88.603 17.784-120.896 50.076L2.959 247.59a10.04 10.04 0 0 0 6.584 17.125l124.844 6.414-5.09 6.267a10.039 10.039 0 0 0-1.026 11.127 233.734 233.734 0 0 0 6.144 10.617l-29.606 35.147a10.045 10.045 0 0 0-1.397 10.763c6.467 13.665 15.05 25.943 25.514 36.493 10.718 10.808 23.251 19.646 37.249 26.271a10.042 10.042 0 0 0 10.62-1.278c6.378-5.174 13.731-11.311 20.843-17.245 5.069-4.23 10.255-8.557 15.102-12.547a232.586 232.586 0 0 0 8.795 5.046 10.026 10.026 0 0 0 4.796 1.221c2.186 0 4.358-.712 6.156-2.108l6.843-5.31 6.442 125.37a10.041 10.041 0 0 0 10.023 9.526c2.615 0 5.183-1.023 7.101-2.942l58.979-58.979c32.293-32.293 50.076-75.227 50.076-120.896v-54.995l23.267-18.055c69.729-54.11 112.196-135.704 116.512-223.862l.239-4.886A23.262 23.262 0 0 0 505.07 8.18zM33.123 245.822l43.012-43.012c28.465-28.465 66.303-44.157 106.553-44.196l42.085 1.236-74.71 91.98-116.94-6.008zm151.651 128.052c-5.241 4.372-10.614 8.856-15.6 12.957-9.644-5.223-18.368-11.74-25.992-19.428-7.384-7.445-13.669-15.922-18.737-25.26l21.676-25.733a232.758 232.758 0 0 0 21.478 24.925l.018.017.006.007.009.008a232.765 232.765 0 0 0 27.641 23.761c-3.462 2.874-7.009 5.834-10.499 8.746zm167.101-46.202c0 40.305-15.695 78.197-44.196 106.698l-43.012 43.012-6.002-116.792 93.209-72.33v39.412zM491.678 29.779c-4.029 82.297-43.673 158.467-108.767 208.98l-157.46 122.189c-13.058-7.63-25.229-16.639-36.368-26.846l53.086-53.086c3.92-3.92 3.92-10.278 0-14.199-3.921-3.921-10.278-3.921-14.199 0l-53.036 53.036c-9.751-10.795-18.387-22.541-25.74-35.104L278.3 125.8c49.432-60.859 122.66-98.629 200.907-103.623l9.348-.596a3.151 3.151 0 0 1 2.423.904c.377.371 1 1.178.94 2.409l-.24 4.885z" style="" fill="currentColor">
    </path>
</svg>