<svg width="160" height="90" viewBox="0 0 160 90" fill="none" xmlns="http://www.w3.org/2000/svg">
<rect width="160" height="90" fill="white"/>
<path fill-rule="evenodd" clip-rule="evenodd" d="M52.412 44.7899C52.8923 45.0612 53.5816 45.3017 54.4799 45.51C55.3775 45.719 56.2971 45.8239 57.2365 45.8239C58.1554 45.8239 59.0016 45.7087 59.7745 45.4792C60.5467 45.2497 61.21 44.9153 61.7637 44.4767C62.3166 44.0382 62.7504 43.5106 63.0642 42.8946C63.3773 42.2786 63.5335 41.5838 63.5335 40.8109C63.5335 39.8708 63.2567 39.0355 62.7038 38.3044C62.1501 37.574 61.2258 36.9998 59.9307 36.5818L57.3934 35.7671C56.4328 35.454 55.7743 35.1244 55.4193 34.7804C55.0644 34.4357 54.8869 34.0123 54.8869 33.5114C54.8869 32.7803 55.1692 32.2479 55.7325 31.9135C56.2971 31.5798 57.0906 31.4119 58.1143 31.4119C59.3874 31.4119 60.5365 31.6422 61.5602 32.1012C61.8733 32.2479 62.1028 32.3205 62.2495 32.3205C62.5201 32.3205 62.6565 32.1328 62.6565 31.7566V30.911C62.6565 30.6603 62.6044 30.4622 62.5003 30.3156C62.3954 30.1696 62.218 30.0237 61.9672 29.8771C61.7794 29.7729 61.5286 29.6688 61.2155 29.5639C60.9024 29.4598 60.5625 29.3652 60.1973 29.2816C59.8314 29.1987 59.4456 29.1309 59.0379 29.0781C58.6309 29.026 58.2287 29 57.832 29C57.0378 29 56.2861 29.1048 55.5763 29.3131C54.8664 29.5221 54.2449 29.8305 53.7125 30.2375C53.1794 30.6445 52.7512 31.1358 52.4277 31.71C52.1036 32.2849 51.9419 32.9475 51.9419 33.6991C51.9419 34.6392 52.24 35.506 52.8347 36.2995C53.4302 37.0936 54.3861 37.6994 55.7017 38.1167L58.302 38.9314C59.1791 39.224 59.7793 39.5371 60.1034 39.8708C60.4268 40.2052 60.5885 40.6231 60.5885 41.124C60.5885 41.8558 60.2802 42.4198 59.6649 42.8158C59.0482 43.2132 58.1766 43.4112 57.0488 43.4112C56.3382 43.4112 55.6283 43.3379 54.9185 43.192C54.2079 43.046 53.5501 42.837 52.9444 42.565C52.7566 42.4821 52.6045 42.4198 52.4901 42.3773C52.375 42.3355 52.266 42.3149 52.1612 42.3149C51.8899 42.3149 51.7542 42.5027 51.7542 42.8788V43.7874C51.7542 43.9546 51.7905 44.1218 51.8638 44.2883C51.9364 44.4562 52.1194 44.6227 52.412 44.7899ZM24.1842 39.2445C24.1842 39.8502 24.1267 40.3676 24.0123 40.7951C23.8971 41.2234 23.6936 41.605 23.4017 41.9387C22.9207 42.4821 22.3568 42.8631 21.7093 43.0823C21.0618 43.3016 20.4458 43.4112 19.8613 43.4112C19.0466 43.4112 18.4203 43.1975 17.9811 42.7692C17.5426 42.341 17.3233 41.7092 17.3233 40.8732C17.3233 39.9756 17.6159 39.2863 18.201 38.806C18.7855 38.3256 19.6729 38.0851 20.8637 38.0851C21.4064 38.0851 21.9649 38.1221 22.5398 38.1948C23.114 38.2681 23.6621 38.3674 24.1842 38.4928V39.2445ZM22.1327 36.096C21.4749 36.0021 20.8425 35.9548 20.2368 35.9548C18.3991 35.9548 16.9368 36.4201 15.8508 37.3492C14.7647 38.2784 14.222 39.5056 14.222 41.0302C14.222 42.4711 14.6606 43.6202 15.5376 44.4767C16.4147 45.3332 17.6056 45.7608 19.1096 45.7608C21.2187 45.7608 22.9728 44.9365 24.3727 43.2859C24.5604 43.6833 24.7434 44.0327 24.9208 44.3356C25.0983 44.6384 25.3121 44.9153 25.5629 45.1654C25.7301 45.3332 25.9075 45.4162 26.0953 45.4162C26.2412 45.4162 26.3981 45.3641 26.5653 45.2599L27.6932 44.5076C27.9234 44.3411 28.0378 44.1629 28.0378 43.9752C28.0378 43.8498 27.996 43.7141 27.9125 43.5682C27.6624 43.1084 27.4684 42.6801 27.3335 42.2834C27.1971 41.8867 27.1293 41.3543 27.1293 40.6855V34.8585C27.1293 32.8954 26.6332 31.4277 25.6417 30.4567C24.6488 29.4851 23.0879 29 20.9576 29C19.9757 29 19.0466 29.1151 18.1695 29.3447C17.2925 29.5749 16.5401 29.8455 15.9138 30.1594C15.663 30.2848 15.4958 30.4095 15.4122 30.5349C15.3287 30.6603 15.2869 30.8692 15.2869 31.1618V32.0389C15.2869 32.4151 15.4122 32.6028 15.663 32.6028C15.7261 32.6028 15.8199 32.5871 15.9447 32.5555C16.07 32.5247 16.279 32.4459 16.5716 32.3205C17.1979 32.0704 17.8406 31.8662 18.4984 31.71C19.1562 31.5531 19.7982 31.475 20.4252 31.475C21.8038 31.475 22.7748 31.7518 23.3387 32.3047C23.9026 32.8591 24.1842 33.8143 24.1842 35.1716V36.4872C23.4744 36.3207 22.7905 36.1899 22.1327 36.096Z" fill="#222931"/>
<mask id="mask0_308_32" style="mask-type:luminance" maskUnits="userSpaceOnUse" x="12" y="29" width="50" height="33">
<path d="M12 29.4698V61.1512H61.0573V29.4698H12Z" fill="white"/>
</mask>
<g mask="url(#mask0_308_32)">
<path fill-rule="evenodd" clip-rule="evenodd" d="M33.1762 44.4768C33.2804 44.8317 33.4058 45.0667 33.5517 45.1812C33.6977 45.2963 33.9279 45.3538 34.241 45.3538H35.7766C36.1103 45.3538 36.3501 45.2908 36.4967 45.1654C36.6427 45.0407 36.7578 44.8002 36.8414 44.4453L39.5986 32.916L42.3867 44.4453C42.4697 44.8002 42.5848 45.0407 42.7314 45.1654C42.8774 45.2908 43.1179 45.3538 43.4516 45.3538H44.9871C45.3002 45.3538 45.5298 45.2963 45.6764 45.1812C45.8224 45.0667 45.9478 44.8317 46.0526 44.4768L50.3756 30.6288C50.4386 30.441 50.4797 30.2951 50.5009 30.1902C50.5215 30.0861 50.5325 29.9922 50.5325 29.9086C50.5325 29.616 50.3858 29.4701 50.0933 29.4701H48.433C48.0986 29.4701 47.8636 29.5277 47.7286 29.6421C47.5923 29.7572 47.4723 29.9922 47.3682 30.3472L44.2663 42.3458L41.4466 30.3472C41.363 29.9922 41.2479 29.7572 41.102 29.6421C40.956 29.5277 40.7155 29.4701 40.3818 29.4701H38.9402C38.6065 29.4701 38.366 29.5277 38.22 29.6421C38.0734 29.7572 37.9583 29.9922 37.8754 30.3472L35.0873 42.1896L32.0792 30.3472C31.9744 29.9922 31.8544 29.7572 31.7195 29.6421C31.5831 29.5277 31.3481 29.4701 31.0144 29.4701H29.2596C28.967 29.4701 28.821 29.616 28.821 29.9086C28.821 30.034 28.8731 30.2738 28.978 30.6288L33.1762 44.4768Z" fill="#222931"/>
</g>
<mask id="mask1_308_32" style="mask-type:luminance" maskUnits="userSpaceOnUse" x="12" y="29" width="50" height="33">
<path d="M12 29.4698V61.1512H61.0573V29.4698H12Z" fill="white"/>
</mask>
<g mask="url(#mask1_308_32)">
<path fill-rule="evenodd" clip-rule="evenodd" d="M59.7664 53.1521C53.1582 55.9553 45.9766 57.3107 39.4439 57.3107C29.7598 57.3107 20.3828 54.6541 12.801 50.2414C12.1377 49.8556 11.6458 50.536 12.1973 51.0349C19.2248 57.3805 28.5121 61.1923 38.8244 61.1923C46.1829 61.1923 54.728 58.8791 60.6229 54.5294C61.5979 53.8086 60.7627 52.7294 59.7664 53.1521Z" fill="#EC912D"/>
</g>
<path fill-rule="evenodd" clip-rule="evenodd" d="M56.0457 50.7012C55.527 51.0657 55.6161 51.5687 56.1917 51.4995C58.0924 51.272 62.3215 50.7642 63.0759 51.729C63.8303 52.6952 62.2372 56.6728 61.526 58.4502C61.3101 58.9867 61.7727 59.2039 62.2591 58.7976C65.4207 56.152 66.2381 50.6094 65.5913 49.8091C64.9486 49.0156 59.4203 48.3318 56.0457 50.7012Z" fill="#EC912D"/>
<path fill-rule="evenodd" clip-rule="evenodd" d="M78.3745 39.7276C77.814 39.7276 77.3872 39.5782 77.0925 39.2794C76.7986 38.9807 76.6519 38.5463 76.6519 37.9762V33.1935H75.5268C75.3836 33.1935 75.3137 33.1215 75.3137 32.979V32.8358C75.3137 32.7597 75.3274 32.7028 75.3555 32.6652C75.3836 32.6275 75.4418 32.6042 75.5268 32.5939L76.6807 32.4952L76.7801 30.615C76.789 30.539 76.8109 30.4841 76.8431 30.4506C76.8774 30.4184 76.9267 30.4012 76.9938 30.4012H77.2494C77.3919 30.4012 77.4625 30.4732 77.4625 30.615V32.4802H79.5277C79.6696 32.4802 79.7415 32.5514 79.7415 32.6946V32.979C79.7415 33.1215 79.6696 33.1935 79.5277 33.1935H77.4625V37.9337C77.4625 38.3236 77.5461 38.5977 77.7119 38.7601C77.8778 38.9218 78.156 39.0019 78.5458 39.0019C78.8199 39.0019 79.0632 38.9786 79.2715 38.93C79.3756 38.9115 79.4585 38.8944 79.5209 38.8807C79.5825 38.867 79.6278 38.8587 79.6566 38.8587C79.7607 38.8587 79.8128 38.9163 79.8128 39.03V39.2438C79.8128 39.4055 79.7607 39.5042 79.6566 39.5426C79.2859 39.6666 78.859 39.7276 78.3745 39.7276ZM81.5354 39.6433C81.3935 39.6433 81.3216 39.5713 81.3216 39.4288V32.6946C81.3216 32.5514 81.3935 32.4802 81.5354 32.4802H81.8067C81.9582 32.4802 82.039 32.5514 82.0486 32.6946L82.1199 33.5189C82.481 33.1215 82.8339 32.8385 83.1799 32.6727C83.5266 32.5062 83.9178 32.4233 84.3557 32.4233C84.5071 32.4233 84.6298 32.4274 84.7257 32.4384C84.8675 32.4466 84.9388 32.5233 84.9388 32.6652V33.0215C84.9388 33.0598 84.9244 33.0955 84.8963 33.1277C84.8675 33.1619 84.8299 33.1784 84.7826 33.1784C84.7058 33.1784 84.6353 33.1763 84.5688 33.1708C84.5016 33.166 84.403 33.164 84.2694 33.164C83.8329 33.164 83.4457 33.2448 83.1093 33.4059C82.7722 33.5676 82.4467 33.828 82.1336 34.1891V39.4288C82.1336 39.5713 82.0623 39.6433 81.9205 39.6433H81.5354ZM88.014 39.0588C88.3744 39.0588 88.7636 38.9848 89.1823 38.8375C89.5996 38.6902 90.0223 38.4846 90.4492 38.2194V36.4379C89.8127 36.268 89.196 36.1823 88.5985 36.1823C87.2692 36.1823 86.6045 36.6949 86.6045 37.7213C86.6045 38.1571 86.7238 38.4887 86.9602 38.7176C87.1979 38.9451 87.5487 39.0588 88.014 39.0588ZM87.9003 39.7988C87.2452 39.7988 86.7258 39.6118 86.3407 39.237C85.957 38.8622 85.7645 38.3613 85.7645 37.735C85.7645 37.0416 86.0009 36.4961 86.4764 36.0974C86.9506 35.6979 87.596 35.4992 88.4135 35.4992C89.0487 35.4992 89.7277 35.6088 90.4492 35.826V34.6303C90.4492 34.0513 90.3115 33.6368 90.036 33.3846C89.7606 33.1332 89.3049 33.0071 88.6691 33.0071C88.0229 33.0071 87.3302 33.1256 86.5901 33.3634C86.5045 33.3922 86.4332 33.4059 86.3764 33.4059C86.2818 33.4059 86.2345 33.3449 86.2345 33.2202V32.9934C86.2345 32.918 86.2482 32.8577 86.2763 32.8145C86.3051 32.7727 86.3531 32.7371 86.4195 32.7083C87.1691 32.4137 87.9619 32.2671 88.7972 32.2671C89.6331 32.2671 90.2526 32.4425 90.6555 32.7933C91.0591 33.1448 91.2612 33.6765 91.2612 34.3878V39.4288C91.2612 39.5713 91.1892 39.6433 91.0474 39.6433H90.748C90.6055 39.6433 90.5301 39.5713 90.5205 39.4288L90.4636 38.8169C89.6468 39.472 88.7931 39.7988 87.9003 39.7988ZM93.7245 39.6433C93.5813 39.6433 93.51 39.5713 93.51 39.4288V32.6946C93.51 32.5514 93.5813 32.4802 93.7245 32.4802H94.1082C94.2514 32.4802 94.322 32.5514 94.322 32.6946V39.4288C94.322 39.5713 94.2514 39.6433 94.1082 39.6433H93.7245ZM93.9232 30.9432C93.7327 30.9432 93.5834 30.8864 93.4751 30.7713C93.3661 30.6582 93.3113 30.5054 93.3113 30.3163C93.3113 30.1272 93.3661 29.9744 93.4751 29.8599C93.5834 29.7462 93.7327 29.6893 93.9232 29.6893C94.1137 29.6893 94.2631 29.7462 94.372 29.8599C94.4803 29.9744 94.5351 30.1272 94.5351 30.3163C94.5351 30.5054 94.4803 30.6582 94.372 30.7713C94.2631 30.8864 94.1137 30.9432 93.9232 30.9432ZM96.8141 39.6433C96.6723 39.6433 96.6003 39.5713 96.6003 39.4288V32.6946C96.6003 32.5514 96.6723 32.4802 96.8141 32.4802H97.0991C97.2506 32.4802 97.3314 32.5514 97.341 32.6946L97.3986 33.3065C97.8631 32.9742 98.3524 32.7179 98.8642 32.537C99.3774 32.3575 99.8763 32.2671 100.36 32.2671C101.053 32.2671 101.582 32.45 101.948 32.8145C102.312 33.1804 102.495 33.719 102.495 34.4316V39.4288C102.495 39.5713 102.425 39.6433 102.282 39.6433H101.898C101.755 39.6433 101.684 39.5713 101.684 39.4288V34.7729C101.684 34.1562 101.566 33.7074 101.328 33.4264C101.09 33.1469 100.711 33.0071 100.189 33.0071C99.2397 33.0071 98.3147 33.3106 97.4123 33.9184V39.4288C97.4123 39.5713 97.341 39.6433 97.1985 39.6433H96.8141ZM104.959 39.6433C104.816 39.6433 104.745 39.5713 104.745 39.4288V32.6946C104.745 32.5514 104.816 32.4802 104.959 32.4802H105.343C105.486 32.4802 105.557 32.5514 105.557 32.6946V39.4288C105.557 39.5713 105.486 39.6433 105.343 39.6433H104.959ZM105.158 30.9432C104.967 30.9432 104.818 30.8864 104.71 30.7713C104.601 30.6582 104.546 30.5054 104.546 30.3163C104.546 30.1272 104.601 29.9744 104.71 29.8599C104.818 29.7462 104.967 29.6893 105.158 29.6893C105.348 29.6893 105.498 29.7462 105.607 29.8599C105.715 29.9744 105.77 30.1272 105.77 30.3163C105.77 30.5054 105.715 30.6582 105.607 30.7713C105.498 30.8864 105.348 30.9432 105.158 30.9432ZM108.049 39.6433C107.906 39.6433 107.835 39.5713 107.835 39.4288V32.6946C107.835 32.5514 107.906 32.4802 108.049 32.4802H108.333C108.485 32.4802 108.566 32.5514 108.575 32.6946L108.633 33.3065C109.098 32.9742 109.587 32.7179 110.099 32.537C110.612 32.3575 111.11 32.2671 111.594 32.2671C112.287 32.2671 112.816 32.45 113.182 32.8145C113.547 33.1804 113.73 33.719 113.73 34.4316V39.4288C113.73 39.5713 113.659 39.6433 113.517 39.6433H113.132C112.99 39.6433 112.918 39.5713 112.918 39.4288V34.7729C112.918 34.1562 112.8 33.7074 112.563 33.4264C112.325 33.1469 111.945 33.0071 111.424 33.0071C110.474 33.0071 109.549 33.3106 108.647 33.9184V39.4288C108.647 39.5713 108.575 39.6433 108.433 39.6433H108.049ZM118.756 38.8019C119.468 38.8019 120.204 38.499 120.963 37.8912V33.9335C120.574 33.6094 120.199 33.375 119.838 33.2277C119.477 33.0818 119.093 33.0071 118.684 33.0071C117.925 33.0071 117.353 33.2544 116.969 33.7485C116.585 34.2418 116.392 34.9722 116.392 35.9398C116.392 36.8716 116.594 37.5801 116.998 38.0694C117.4 38.5579 117.988 38.8019 118.756 38.8019ZM118.443 42.7473C118.045 42.7473 117.655 42.7062 117.276 42.6253C116.895 42.5451 116.564 42.4341 116.279 42.2909C116.174 42.2436 116.122 42.1436 116.122 41.9922V41.7928C116.122 41.6694 116.174 41.6071 116.279 41.6071C116.307 41.6071 116.338 41.6119 116.371 41.6222C116.404 41.6304 116.464 41.6503 116.549 41.679C117.223 41.8976 117.84 42.0073 118.399 42.0073C119.283 42.0073 119.931 41.788 120.344 41.3508C120.757 40.9143 120.963 40.2257 120.963 39.287V38.5894C120.612 38.8841 120.223 39.115 119.795 39.287C119.368 39.4583 118.96 39.5426 118.571 39.5426C117.659 39.5426 116.928 39.2185 116.379 38.5675C115.828 37.9179 115.552 37.0566 115.552 35.9836C115.552 34.8345 115.826 33.928 116.371 33.2633C116.917 32.5994 117.659 32.2671 118.6 32.2671C119.491 32.2671 120.284 32.5857 120.977 33.2202L121.035 32.6946C121.054 32.5514 121.133 32.4802 121.277 32.4802H121.562C121.704 32.4802 121.775 32.5514 121.775 32.6946V39.3151C121.775 40.4347 121.49 41.2878 120.92 41.8702C120.352 42.4547 119.525 42.7473 118.443 42.7473ZM129.52 39.0588C129.881 39.0588 130.271 38.9848 130.689 38.8375C131.107 38.6902 131.529 38.4846 131.956 38.2194V36.4379C131.32 36.268 130.702 36.1823 130.105 36.1823C128.776 36.1823 128.112 36.6949 128.112 37.7213C128.112 38.1571 128.23 38.4887 128.467 38.7176C128.704 38.9451 129.056 39.0588 129.52 39.0588ZM129.407 39.7988C128.752 39.7988 128.232 39.6118 127.848 39.237C127.464 38.8622 127.271 38.3613 127.271 37.735C127.271 37.0416 127.508 36.4961 127.983 36.0974C128.458 35.6979 129.103 35.4992 129.92 35.4992C130.555 35.4992 131.235 35.6088 131.956 35.826V34.6303C131.956 34.0513 131.818 33.6368 131.542 33.3846C131.267 33.1332 130.812 33.0071 130.175 33.0071C129.53 33.0071 128.837 33.1256 128.096 33.3634C128.012 33.3922 127.94 33.4059 127.883 33.4059C127.789 33.4059 127.742 33.3449 127.742 33.2202V32.9934C127.742 32.918 127.755 32.8577 127.783 32.8145C127.812 32.7727 127.86 32.7371 127.927 32.7083C128.676 32.4137 129.469 32.2671 130.304 32.2671C131.14 32.2671 131.76 32.4425 132.162 32.7933C132.566 33.1448 132.768 33.6765 132.768 34.3878V39.4288C132.768 39.5713 132.696 39.6433 132.554 39.6433H132.254C132.112 39.6433 132.037 39.5713 132.028 39.4288L131.971 38.8169C131.154 39.472 130.299 39.7988 129.407 39.7988ZM135.173 39.6433C135.031 39.6433 134.96 39.5713 134.96 39.4288V32.6946C134.96 32.5514 135.031 32.4802 135.173 32.4802H135.458C135.61 32.4802 135.691 32.5514 135.7 32.6946L135.758 33.3065C136.223 32.9742 136.712 32.7179 137.224 32.537C137.737 32.3575 138.235 32.2671 138.719 32.2671C139.412 32.2671 139.941 32.45 140.307 32.8145C140.672 33.1804 140.855 33.719 140.855 34.4316V39.4288C140.855 39.5713 140.784 39.6433 140.641 39.6433H140.258C140.115 39.6433 140.043 39.5713 140.043 39.4288V34.7729C140.043 34.1562 139.925 33.7074 139.687 33.4264C139.45 33.1469 139.071 33.0071 138.549 33.0071C137.6 33.0071 136.674 33.3106 135.772 33.9184V39.4288C135.772 39.5713 135.7 39.6433 135.558 39.6433H135.173ZM145.91 39.0588C146.622 39.0588 147.367 38.756 148.145 38.1482V33.9335C147.747 33.6094 147.364 33.375 146.999 33.2277C146.633 33.0818 146.246 33.0071 145.838 33.0071C145.079 33.0071 144.502 33.2633 144.108 33.7759C143.714 34.2891 143.518 35.0483 143.518 36.0542C143.518 38.0577 144.315 39.0588 145.91 39.0588ZM145.725 39.7988C144.785 39.7988 144.042 39.4699 143.496 38.8101C142.95 38.1502 142.677 37.2458 142.677 36.0974C142.677 34.9195 142.952 33.9883 143.504 33.2997C144.054 32.6103 144.803 32.2671 145.753 32.2671C146.636 32.2671 147.433 32.5802 148.145 33.2072V29.3193C148.145 29.1761 148.217 29.1062 148.359 29.1062H148.744C148.886 29.1062 148.957 29.1761 148.957 29.3193V39.4288C148.957 39.5713 148.886 39.6433 148.744 39.6433H148.444C148.302 39.6433 148.221 39.5713 148.202 39.4288L148.145 38.845C147.794 39.1397 147.403 39.372 146.97 39.5426C146.538 39.7139 146.123 39.7988 145.725 39.7988ZM79.1577 54.3355C78.0566 54.3355 77.2206 54.0196 76.6519 53.3885C76.0818 52.7581 75.7968 51.8297 75.7968 50.6045C75.7968 49.3897 76.0866 48.4612 76.6656 47.8219C77.2453 47.1806 78.0854 46.8599 79.1865 46.8599C79.7079 46.8599 80.2061 46.9503 80.6816 47.1299C80.7954 47.1682 80.8516 47.2689 80.8516 47.43V47.6287C80.8516 47.7527 80.7954 47.8137 80.6816 47.8137C80.6528 47.8137 80.6172 47.8096 80.574 47.8C80.5322 47.7904 80.463 47.776 80.3685 47.7568C79.9889 47.6623 79.6086 47.615 79.229 47.615C78.3273 47.615 77.6743 47.8452 77.2714 48.3057C76.8678 48.7661 76.6656 49.5041 76.6656 50.5202V50.6902C76.6656 51.6776 76.8698 52.4066 77.2775 52.8753C77.6859 53.3467 78.3273 53.5811 79.2009 53.5811C79.5709 53.5811 79.9834 53.5194 80.4397 53.3947C80.5439 53.368 80.6172 53.3488 80.6604 53.3385C80.7022 53.3296 80.7385 53.3248 80.7666 53.3248C80.8803 53.3248 80.9379 53.3865 80.9379 53.5098V53.7085C80.9379 53.8606 80.8858 53.9607 80.7817 54.0079C80.2588 54.2258 79.7175 54.3355 79.1577 54.3355ZM87.2301 50.0783C87.2397 49.946 87.2452 49.7884 87.2452 49.6076C87.2452 48.9237 87.0787 48.4078 86.7464 48.0556C86.4141 47.7054 85.9255 47.5293 85.28 47.5293C83.7794 47.5293 82.9873 48.379 82.9024 50.0783H87.2301ZM85.4794 54.3917C84.3495 54.3917 83.4999 54.0724 82.9305 53.431C82.3611 52.7903 82.076 51.8386 82.076 50.5771C82.076 49.3801 82.3631 48.453 82.9373 47.7924C83.5122 47.1333 84.3166 46.803 85.3513 46.803C86.2147 46.803 86.8772 47.0504 87.3377 47.543C87.7975 48.0364 88.0277 48.7449 88.0277 49.6651C88.0277 50.0447 88.0085 50.3298 87.9708 50.5202C87.9421 50.6621 87.8612 50.7327 87.729 50.7327H82.9024C82.9106 51.7296 83.1292 52.4655 83.5561 52.9411C83.9843 53.4152 84.6435 53.6516 85.5363 53.6516C86.2201 53.6516 86.8697 53.5338 87.4871 53.296C87.6097 53.2487 87.6954 53.2248 87.7433 53.2248C87.781 53.2248 87.8139 53.2412 87.842 53.2755C87.8708 53.309 87.8852 53.3488 87.8852 53.3947V53.6098C87.8852 53.7613 87.8331 53.8606 87.729 53.9079C87.0451 54.2313 86.2955 54.3917 85.4794 54.3917ZM90.1779 54.1792C90.036 54.1792 89.9641 54.108 89.9641 53.9648V47.2313C89.9641 47.0881 90.036 47.0168 90.1779 47.0168H90.4492C90.6007 47.0168 90.6815 47.0881 90.6911 47.2313L90.7624 48.0556C91.1228 47.6581 91.4763 47.3752 91.8224 47.2086C92.1691 47.0428 92.5603 46.9599 92.9982 46.9599C93.1496 46.9599 93.2723 46.964 93.3682 46.9743C93.51 46.9832 93.5813 47.06 93.5813 47.2018V47.5581C93.5813 47.5958 93.5669 47.6314 93.5381 47.6643C93.51 47.6979 93.4724 47.7143 93.4251 47.7143C93.3483 47.7143 93.2778 47.7123 93.2113 47.7075C93.1441 47.702 93.0455 47.6999 92.9119 47.6999C92.4754 47.6999 92.0882 47.7808 91.7518 47.9418C91.4147 48.1035 91.0892 48.3646 90.7761 48.725V53.9648C90.7761 54.108 90.7048 54.1792 90.563 54.1792H90.1779ZM97.4966 54.2635C96.9361 54.2635 96.5092 54.1142 96.2145 53.8154C95.9199 53.5173 95.774 53.0829 95.774 52.5128V47.7294H94.6488C94.5056 47.7294 94.4358 47.6581 94.4358 47.5149V47.3717C94.4358 47.2964 94.4488 47.2395 94.4775 47.2018C94.5056 47.1634 94.5639 47.1408 94.6488 47.1299L95.8027 47.0312L95.9021 45.151C95.911 45.0756 95.9329 45.0208 95.9651 44.9872C95.9987 44.9543 96.0487 44.9379 96.1159 44.9379H96.3715C96.514 44.9379 96.5846 45.0091 96.5846 45.151V47.0168H98.6498C98.7916 47.0168 98.8635 47.0881 98.8635 47.2313V47.5149C98.8635 47.6581 98.7916 47.7294 98.6498 47.7294H96.5846V52.4697C96.5846 52.8595 96.6675 53.1343 96.834 53.296C96.9998 53.4584 97.278 53.5379 97.6679 53.5379C97.9419 53.5379 98.1852 53.5153 98.3935 53.4666C98.4976 53.4474 98.5806 53.431 98.6422 53.4173C98.7046 53.4036 98.7498 53.3947 98.7779 53.3947C98.882 53.3947 98.9348 53.4529 98.9348 53.5667V53.7798C98.9348 53.9415 98.882 54.0408 98.7779 54.0785C98.4079 54.2025 97.981 54.2635 97.4966 54.2635ZM100.858 54.1792C100.715 54.1792 100.644 54.108 100.644 53.9648V47.2313C100.644 47.0881 100.715 47.0168 100.858 47.0168H101.242C101.385 47.0168 101.456 47.0881 101.456 47.2313V53.9648C101.456 54.108 101.385 54.1792 101.242 54.1792H100.858ZM101.057 45.4792C100.866 45.4792 100.717 45.4223 100.609 45.3079C100.5 45.1941 100.445 45.042 100.445 44.8522C100.445 44.6631 100.5 44.511 100.609 44.3959C100.717 44.2828 100.866 44.2259 101.057 44.2259C101.247 44.2259 101.397 44.2828 101.506 44.3959C101.614 44.511 101.669 44.6631 101.669 44.8522C101.669 45.042 101.614 45.1941 101.506 45.3079C101.397 45.4223 101.247 45.4792 101.057 45.4792ZM109.529 45.4792C109.339 45.4792 109.19 45.4223 109.081 45.3079C108.972 45.1941 108.917 45.042 108.917 44.8522C108.917 44.6631 108.972 44.511 109.081 44.3959C109.19 44.2828 109.339 44.2259 109.529 44.2259C109.719 44.2259 109.869 44.2828 109.978 44.3959C110.087 44.511 110.141 44.6631 110.141 44.8522C110.141 45.042 110.087 45.1941 109.978 45.3079C109.869 45.4223 109.719 45.4792 109.529 45.4792ZM104.688 54.1792C104.546 54.1792 104.474 54.108 104.474 53.9648V47.7294H103.293C103.15 47.7294 103.079 47.6581 103.079 47.5149V47.3717C103.079 47.2395 103.141 47.1634 103.264 47.1449L104.474 47.0312V45.3929C104.474 44.7577 104.641 44.2739 104.973 43.9416C105.305 43.6093 105.779 43.4434 106.397 43.4434C106.824 43.4434 107.194 43.4894 107.507 43.5846C107.583 43.6045 107.638 43.6346 107.671 43.6771C107.705 43.721 107.721 43.784 107.721 43.8703V44.1122C107.721 44.2349 107.664 44.2972 107.55 44.2972C107.465 44.2876 107.331 44.2657 107.152 44.2335C106.971 44.2006 106.753 44.1835 106.496 44.1835C106.069 44.1835 105.76 44.2712 105.571 44.4466C105.381 44.622 105.286 44.9091 105.286 45.3079V47.0168H109.714C109.857 47.0168 109.928 47.0881 109.928 47.2313V53.9648C109.928 54.108 109.857 54.1792 109.714 54.1792H109.33C109.188 54.1792 109.116 54.108 109.116 53.9648V47.7294H105.286V53.9648C105.286 54.108 105.215 54.1792 105.073 54.1792H104.688ZM115.339 54.3355C114.238 54.3355 113.402 54.0196 112.833 53.3885C112.263 52.7581 111.978 51.8297 111.978 50.6045C111.978 49.3897 112.267 48.4612 112.847 47.8219C113.426 47.1806 114.266 46.8599 115.367 46.8599C115.889 46.8599 116.387 46.9503 116.863 47.1299C116.976 47.1682 117.032 47.2689 117.032 47.43V47.6287C117.032 47.7527 116.976 47.8137 116.863 47.8137C116.834 47.8137 116.798 47.8096 116.755 47.8C116.713 47.7904 116.643 47.776 116.549 47.7568C116.169 47.6623 115.789 47.615 115.41 47.615C114.508 47.615 113.855 47.8452 113.452 48.3057C113.049 48.7661 112.847 49.5041 112.847 50.5202V50.6902C112.847 51.6776 113.051 52.4066 113.458 52.8753C113.867 53.3467 114.508 53.5811 115.382 53.5811C115.752 53.5811 116.164 53.5194 116.621 53.3947C116.725 53.368 116.798 53.3488 116.841 53.3385C116.883 53.3296 116.919 53.3248 116.947 53.3248C117.061 53.3248 117.119 53.3865 117.119 53.5098V53.7085C117.119 53.8606 117.066 53.9607 116.962 54.0079C116.44 54.2258 115.898 54.3355 115.339 54.3355ZM120.707 53.5948C121.068 53.5948 121.456 53.5214 121.875 53.3741C122.292 53.2268 122.715 53.0206 123.142 52.7554V50.9745C122.506 50.8039 121.889 50.719 121.291 50.719C119.962 50.719 119.298 51.2308 119.298 52.2572C119.298 52.6937 119.416 53.0247 119.653 53.2542C119.89 53.481 120.242 53.5948 120.707 53.5948ZM120.593 54.3355C119.938 54.3355 119.418 54.1477 119.034 53.7736C118.65 53.3981 118.458 52.8979 118.458 52.2709C118.458 51.5782 118.694 51.0321 119.17 50.634C119.644 50.2345 120.289 50.0351 121.106 50.0351C121.741 50.0351 122.421 50.1448 123.142 50.3626V49.167C123.142 48.5873 123.004 48.1734 122.729 47.9206C122.453 47.6698 121.998 47.543 121.362 47.543C120.716 47.543 120.023 47.6623 119.283 47.9C119.198 47.9281 119.126 47.9418 119.07 47.9418C118.975 47.9418 118.928 47.8808 118.928 47.7568V47.5293C118.928 47.454 118.941 47.3937 118.97 47.3512C118.998 47.3087 119.046 47.2731 119.113 47.245C119.862 46.9503 120.655 46.803 121.49 46.803C122.326 46.803 122.945 46.9784 123.348 47.3299C123.752 47.6808 123.954 48.2132 123.954 48.9237V53.9648C123.954 54.108 123.882 54.1792 123.741 54.1792H123.441C123.299 54.1792 123.223 54.108 123.214 53.9648L123.157 53.3529C122.339 54.0079 121.486 54.3355 120.593 54.3355ZM128.495 54.2635C127.935 54.2635 127.508 54.1142 127.213 53.8154C126.919 53.5173 126.773 53.0829 126.773 52.5128V47.7294H125.648C125.505 47.7294 125.434 47.6581 125.434 47.5149V47.3717C125.434 47.2964 125.448 47.2395 125.476 47.2018C125.505 47.1634 125.563 47.1408 125.648 47.1299L126.801 47.0312L126.901 45.151C126.91 45.0756 126.932 45.0208 126.965 44.9872C126.998 44.9543 127.047 44.9379 127.115 44.9379H127.37C127.513 44.9379 127.584 45.0091 127.584 45.151V47.0168H129.649C129.791 47.0168 129.862 47.0881 129.862 47.2313V47.5149C129.862 47.6581 129.791 47.7294 129.649 47.7294H127.584V52.4697C127.584 52.8595 127.667 53.1343 127.833 53.296C127.999 53.4584 128.277 53.5379 128.667 53.5379C128.941 53.5379 129.184 53.5153 129.392 53.4666C129.496 53.4474 129.579 53.431 129.642 53.4173C129.703 53.4036 129.748 53.3947 129.777 53.3947C129.881 53.3947 129.934 53.4529 129.934 53.5667V53.7798C129.934 53.9415 129.881 54.0408 129.777 54.0785C129.407 54.2025 128.98 54.2635 128.495 54.2635ZM131.857 54.1792C131.714 54.1792 131.642 54.108 131.642 53.9648V47.2313C131.642 47.0881 131.714 47.0168 131.857 47.0168H132.241C132.384 47.0168 132.454 47.0881 132.454 47.2313V53.9648C132.454 54.108 132.384 54.1792 132.241 54.1792H131.857ZM132.056 45.4792C131.866 45.4792 131.716 45.4223 131.608 45.3079C131.499 45.1941 131.444 45.042 131.444 44.8522C131.444 44.6631 131.499 44.511 131.608 44.3959C131.716 44.2828 131.866 44.2259 132.056 44.2259C132.246 44.2259 132.395 44.2828 132.505 44.3959C132.613 44.511 132.667 44.6631 132.667 44.8522C132.667 45.042 132.613 45.1941 132.505 45.3079C132.395 45.4223 132.246 45.4792 132.056 45.4792ZM137.809 53.6516C139.45 53.6516 140.271 52.6314 140.271 50.5908C140.271 48.5599 139.45 47.543 137.809 47.543C136.166 47.543 135.345 48.5599 135.345 50.5908C135.345 52.6314 136.166 53.6516 137.809 53.6516ZM137.809 54.3917C136.764 54.3917 135.953 54.0573 135.373 53.3885C134.794 52.7198 134.505 51.7865 134.505 50.5908C134.505 49.3951 134.794 48.4646 135.373 47.8C135.953 47.1353 136.764 46.803 137.809 46.803C138.853 46.803 139.665 47.1353 140.243 47.8C140.822 48.4646 141.111 49.3951 141.111 50.5908C141.111 51.7865 140.822 52.7198 140.243 53.3885C139.665 54.0573 138.853 54.3917 137.809 54.3917ZM143.318 54.1792C143.176 54.1792 143.105 54.108 143.105 53.9648V47.2313C143.105 47.0881 143.176 47.0168 143.318 47.0168H143.603C143.755 47.0168 143.836 47.0881 143.845 47.2313L143.903 47.8431C144.368 47.5108 144.857 47.2539 145.369 47.073C145.882 46.8935 146.38 46.803 146.864 46.803C147.558 46.803 148.086 46.986 148.452 47.3512C148.817 47.7171 149 48.255 149 48.9683V53.9648C149 54.108 148.929 54.1792 148.786 54.1792H148.403C148.26 54.1792 148.188 54.108 148.188 53.9648V49.3088C148.188 48.6928 148.07 48.2433 147.833 47.9631C147.595 47.6835 147.216 47.543 146.694 47.543C145.745 47.543 144.819 47.8473 143.917 48.455V53.9648C143.917 54.108 143.845 54.1792 143.703 54.1792H143.318Z" fill="#222931"/>
</svg>
