<svg xmlns="http://www.w3.org/2000/svg" xmlns:xlink="http://www.w3.org/1999/xlink" width="500" zoomAndPan="magnify" viewBox="0 0 375 374.999991" height="500" preserveAspectRatio="xMidYMid meet" version="1.0"><defs><g/></defs><rect x="-37.5" width="450" fill="#ffffff" y="-37.499999" height="449.999989" fill-opacity="1"/><rect x="-37.5" width="450" fill="#ffffff" y="-37.499999" height="449.999989" fill-opacity="1"/><rect x="-37.5" width="450" fill="#007d7f" y="-37.499999" height="449.999989" fill-opacity="1"/><g fill="#ffffff" fill-opacity="1"><g transform="translate(77.874023, 243.517542)"><g><path d="M 3.546875 -16.675781 C 14.722656 -5.5 31.042969 2.128906 53.746094 2.128906 C 85.675781 2.128906 101.109375 -14.191406 101.109375 -35.832031 C 101.109375 -62.082031 76.273438 -67.9375 56.761719 -72.371094 C 43.105469 -75.566406 33.171875 -78.046875 33.171875 -86.03125 C 33.171875 -93.125 39.203125 -98.09375 50.554688 -98.09375 C 62.082031 -98.09375 74.855469 -94.011719 84.433594 -85.144531 L 98.449219 -103.589844 C 86.738281 -114.410156 71.128906 -120.089844 52.328125 -120.089844 C 24.480469 -120.089844 7.449219 -104.125 7.449219 -84.433594 C 7.449219 -58.003906 32.285156 -52.683594 51.617188 -48.246094 C 65.277344 -45.054688 75.566406 -42.039062 75.566406 -33.171875 C 75.566406 -26.429688 68.824219 -19.867188 54.988281 -19.867188 C 38.667969 -19.867188 25.71875 -27.140625 17.382812 -35.832031 Z M 3.546875 -16.675781 "/></g></g></g><g fill="#ffffff" fill-opacity="1"><g transform="translate(184.299023, 243.517542)"><g><path d="M 112.992188 0 L 62.792969 -62.792969 L 109.800781 -118.3125 L 78.757812 -118.3125 L 36.894531 -65.453125 L 36.894531 -118.3125 L 11.707031 -118.3125 L 11.707031 0 L 36.894531 0 L 36.894531 -36.363281 L 46.121094 -47.359375 L 81.949219 0 Z M 112.992188 0 "/></g></g></g></svg>